<svg width="319" height="760" viewBox="0 0 319 760" fill="none" xmlns="http://www.w3.org/2000/svg">
<path d="M33.02 36.34L27.63 40.54C26.73 41.24 26 42.73 26 43.86V51.27C26 53.59 27.89 55.49 30.21 55.49H41.79C44.11 55.49 46 53.59 46 51.28V44C46 42.79 45.19 41.24 44.2 40.55L38.02 36.22C36.62 35.24 34.37 35.29 33.02 36.34Z" stroke="#272343" stroke-width="1.5" stroke-linecap="round" stroke-linejoin="round"/>
<path d="M36 51.49V48.49" stroke="#272343" stroke-width="1.5" stroke-linecap="round" stroke-linejoin="round"/>
<path d="M73.558 39.4H75.664V52H73.558V46.456H67.672V52H65.566V39.4H67.672V44.53H73.558V39.4ZM82.3303 52.162C79.3783 52.162 77.9383 50.092 77.9383 47.356C77.9383 44.638 79.4143 42.55 82.3303 42.55C85.2463 42.55 86.7223 44.638 86.7223 47.356C86.7223 50.074 85.2823 52.162 82.3303 52.162ZM82.3303 50.344C83.8963 50.344 84.6343 49.228 84.6343 47.356C84.6343 45.502 83.8963 44.368 82.3303 44.368C80.7643 44.368 80.0263 45.52 80.0263 47.356C80.0263 49.228 80.7823 50.344 82.3303 50.344ZM99.2216 42.55C101.274 42.55 102.534 43.846 102.534 45.934V52H100.482V46.438C100.482 45.178 99.9596 44.404 98.6816 44.404C97.4396 44.404 96.7016 45.322 96.7016 46.87V52H94.6676V46.438C94.6676 45.178 94.1456 44.404 92.8676 44.404C91.6256 44.404 90.7976 45.322 90.7976 46.87V52H88.7456V42.712H90.5636L90.7256 43.918H90.7976C91.3016 43.126 92.1296 42.55 93.4796 42.55C94.7756 42.55 95.7476 43.072 96.2696 44.008H96.3236C96.8096 43.216 97.7456 42.55 99.2216 42.55ZM108.768 52.162C105.942 52.162 104.376 50.056 104.376 47.356C104.376 44.692 105.798 42.55 108.732 42.55C111.45 42.55 112.926 44.512 112.926 47.068V47.932H106.5C106.5 49.408 107.256 50.434 108.768 50.434C109.902 50.434 110.586 49.93 110.802 49.174H112.8C112.548 50.866 110.982 52.162 108.768 52.162ZM106.518 46.474H110.82C110.802 45.25 110.136 44.296 108.732 44.296C107.238 44.296 106.572 45.268 106.518 46.474Z" fill="#272343"/>
<rect width="319" height="59" transform="matrix(1 0 0 -1 0 134)" fill="#F2EAE1"/>
<path d="M43.9 106H28.1C26.6 106 26 106.64 26 108.23V112.27C26 113.86 26.6 114.5 28.1 114.5H43.9C45.4 114.5 46 113.86 46 112.27V108.23C46 106.64 45.4 106 43.9 106Z" stroke="#272343" stroke-width="1.5" stroke-linecap="round" stroke-linejoin="round"/>
<path d="M43.9 94.5H28.1C26.6 94.5 26 95.14 26 96.73V100.77C26 102.36 26.6 103 28.1 103H43.9C45.4 103 46 102.36 46 100.77V96.73C46 95.14 45.4 94.5 43.9 94.5Z" stroke="#272343" stroke-width="1.5" stroke-linecap="round" stroke-linejoin="round"/>
<path d="M71.524 98.4L76.042 110.82V111H73.738L72.748 108.084H67.6L66.61 111H64.378V110.82L68.878 98.4H71.524ZM68.23 106.23H72.118L70.21 100.614H70.138L68.23 106.23ZM81.1534 111.162C78.2914 111.162 76.7254 109.236 76.7254 106.356C76.7254 103.494 78.2554 101.55 81.0994 101.55C83.7094 101.55 85.0054 103.098 85.1314 105.096H83.0794C82.9894 104.052 82.2514 103.368 81.0994 103.368C79.5154 103.368 78.8134 104.556 78.8134 106.356C78.8134 108.192 79.5154 109.362 81.0994 109.362C82.2694 109.362 82.9894 108.696 83.0974 107.634H85.1494C84.9874 109.686 83.6914 111.162 81.1534 111.162ZM90.9796 111.162C88.1176 111.162 86.5516 109.236 86.5516 106.356C86.5516 103.494 88.0816 101.55 90.9256 101.55C93.5356 101.55 94.8316 103.098 94.9576 105.096H92.9056C92.8156 104.052 92.0776 103.368 90.9256 103.368C89.3416 103.368 88.6396 104.556 88.6396 106.356C88.6396 108.192 89.3416 109.362 90.9256 109.362C92.0956 109.362 92.8156 108.696 92.9236 107.634H94.9756C94.8136 109.686 93.5176 111.162 90.9796 111.162ZM100.77 111.162C97.8178 111.162 96.3778 109.092 96.3778 106.356C96.3778 103.638 97.8538 101.55 100.77 101.55C103.686 101.55 105.162 103.638 105.162 106.356C105.162 109.074 103.722 111.162 100.77 111.162ZM100.77 109.344C102.336 109.344 103.074 108.228 103.074 106.356C103.074 104.502 102.336 103.368 100.77 103.368C99.2038 103.368 98.4658 104.52 98.4658 106.356C98.4658 108.228 99.2218 109.344 100.77 109.344ZM110.425 111.144C108.355 111.144 107.077 109.866 107.077 107.76V101.712H109.129V107.256C109.129 108.552 109.723 109.308 111.019 109.308C112.315 109.308 113.143 108.39 113.143 106.842V101.712H115.195V111H113.377L113.215 109.776H113.143C112.639 110.586 111.757 111.144 110.425 111.144ZM117.627 111V101.712H119.445L119.607 102.918H119.679C120.183 102.126 121.064 101.55 122.397 101.55C124.467 101.55 125.745 102.846 125.745 104.934V111H123.693V105.438C123.693 104.142 123.099 103.404 121.803 103.404C120.507 103.404 119.679 104.322 119.679 105.87V111H117.627ZM131.719 111C129.739 111 128.965 109.902 128.965 108.3V103.458H127.435V101.712H129.055V99.246H131.017V101.712H133.267V103.458H131.017V107.94C131.017 108.822 131.395 109.2 132.223 109.2H133.303V111H131.719ZM138.763 111.162C136.261 111.162 134.875 109.866 134.821 107.904H136.873C136.873 108.822 137.593 109.398 138.763 109.398C139.933 109.398 140.545 109.002 140.545 108.354C140.545 107.832 140.167 107.472 139.321 107.292L137.683 106.986C136.171 106.68 135.109 105.834 135.109 104.25C135.109 102.72 136.441 101.55 138.691 101.55C140.923 101.55 142.399 102.792 142.399 104.592H140.383C140.347 103.746 139.717 103.206 138.655 103.206C137.737 103.206 137.107 103.584 137.107 104.268C137.107 104.826 137.557 105.15 138.331 105.276L139.915 105.582C141.535 105.924 142.615 106.59 142.615 108.354C142.615 110.154 140.923 111.162 138.763 111.162Z" fill="#272343"/>
<path d="M29 168V159C29 158.38 29.02 157.83 29.09 157.34C29.38 154.71 30.62 154 34 154H38C41.38 154 42.62 154.71 42.91 157.34C42.98 157.83 43 158.38 43 159V168C43 168.62 42.98 169.17 42.91 169.66C42.62 172.29 41.38 173 38 173H34C30.62 173 29.38 172.29 29.09 169.66C29.02 169.17 29 168.62 29 168Z" stroke="#272343" stroke-width="1.5" stroke-linecap="round" stroke-linejoin="round"/>
<path d="M26 171V156" stroke="#272343" stroke-width="1.5" stroke-linecap="round" stroke-linejoin="round"/>
<path d="M46 170.5V155.5" stroke="#272343" stroke-width="1.5" stroke-linecap="round" stroke-linejoin="round"/>
<path d="M67.384 170L64.378 157.58V157.4H66.556L68.662 166.922H68.734L71.182 157.4H73.45L75.934 166.922H76.006L78.076 157.4H80.254V157.58L77.23 170H74.764L72.37 160.676H72.298L69.85 170H67.384ZM84.9846 170.162C82.0326 170.162 80.5926 168.092 80.5926 165.356C80.5926 162.638 82.0686 160.55 84.9846 160.55C87.9006 160.55 89.3766 162.638 89.3766 165.356C89.3766 168.074 87.9366 170.162 84.9846 170.162ZM84.9846 168.344C86.5506 168.344 87.2886 167.228 87.2886 165.356C87.2886 163.502 86.5506 162.368 84.9846 162.368C83.4186 162.368 82.6806 163.52 82.6806 165.356C82.6806 167.228 83.4366 168.344 84.9846 168.344ZM91.3999 170V160.712H93.1279L93.3079 162.188H93.3799C93.7579 161.234 94.6219 160.586 95.7919 160.586H96.5479V162.494H95.7559C94.1899 162.494 93.3799 163.574 93.3799 165.464V170H91.3999ZM102.536 164.924L106.442 169.82V170H104.012L100.394 165.428V170H98.4136V156.68H100.394V164.492L103.886 160.712H106.298V160.892L102.536 164.924ZM110.902 170.162C108.4 170.162 107.014 168.866 106.96 166.904H109.012C109.012 167.822 109.732 168.398 110.902 168.398C112.072 168.398 112.684 168.002 112.684 167.354C112.684 166.832 112.306 166.472 111.46 166.292L109.822 165.986C108.31 165.68 107.248 164.834 107.248 163.25C107.248 161.72 108.58 160.55 110.83 160.55C113.062 160.55 114.538 161.792 114.538 163.592H112.522C112.486 162.746 111.856 162.206 110.794 162.206C109.876 162.206 109.246 162.584 109.246 163.268C109.246 163.826 109.696 164.15 110.47 164.276L112.054 164.582C113.674 164.924 114.754 165.59 114.754 167.354C114.754 169.154 113.062 170.162 110.902 170.162ZM116.765 174.122V160.712H118.583L118.817 161.828H118.889C119.357 161.126 120.185 160.55 121.535 160.55C123.929 160.55 125.405 162.458 125.405 165.356C125.405 168.128 124.037 170.162 121.535 170.162C120.185 170.162 119.357 169.586 118.889 168.884H118.817V174.122H116.765ZM121.031 168.344C122.723 168.344 123.335 166.976 123.335 165.356C123.335 163.736 122.705 162.368 121.031 162.368C119.393 162.368 118.745 163.754 118.745 165.356C118.745 166.958 119.393 168.344 121.031 168.344ZM130.063 170.162C128.011 170.162 126.823 168.902 126.823 167.264C126.823 165.644 127.957 164.384 130.621 164.384H132.781V163.826C132.781 162.962 132.241 162.242 130.945 162.242C129.811 162.242 129.217 162.872 129.199 163.628H127.255C127.255 161.864 128.641 160.55 130.981 160.55C133.429 160.55 134.815 161.972 134.815 163.808V170H133.015L132.871 168.902H132.799C132.259 169.694 131.305 170.162 130.063 170.162ZM130.531 168.524C131.899 168.524 132.781 167.588 132.781 166.49V165.86H130.711C129.487 165.86 128.875 166.364 128.875 167.192C128.875 167.948 129.415 168.524 130.531 168.524ZM141.077 170.162C138.215 170.162 136.649 168.236 136.649 165.356C136.649 162.494 138.179 160.55 141.023 160.55C143.633 160.55 144.929 162.098 145.055 164.096H143.003C142.913 163.052 142.175 162.368 141.023 162.368C139.439 162.368 138.737 163.556 138.737 165.356C138.737 167.192 139.439 168.362 141.023 168.362C142.193 168.362 142.913 167.696 143.021 166.634H145.073C144.911 168.686 143.615 170.162 141.077 170.162ZM150.867 170.162C148.041 170.162 146.475 168.056 146.475 165.356C146.475 162.692 147.897 160.55 150.831 160.55C153.549 160.55 155.025 162.512 155.025 165.068V165.932H148.599C148.599 167.408 149.355 168.434 150.867 168.434C152.001 168.434 152.685 167.93 152.901 167.174H154.899C154.647 168.866 153.081 170.162 150.867 170.162ZM148.617 164.474H152.919C152.901 163.25 152.235 162.296 150.831 162.296C149.337 162.296 148.671 163.268 148.617 164.474ZM160.384 170.162C157.882 170.162 156.496 168.866 156.442 166.904H158.494C158.494 167.822 159.214 168.398 160.384 168.398C161.554 168.398 162.166 168.002 162.166 167.354C162.166 166.832 161.788 166.472 160.942 166.292L159.304 165.986C157.792 165.68 156.73 164.834 156.73 163.25C156.73 161.72 158.062 160.55 160.312 160.55C162.544 160.55 164.02 161.792 164.02 163.592H162.004C161.968 162.746 161.338 162.206 160.276 162.206C159.358 162.206 158.728 162.584 158.728 163.268C158.728 163.826 159.178 164.15 159.952 164.276L161.536 164.582C163.156 164.924 164.236 165.59 164.236 167.354C164.236 169.154 162.544 170.162 160.384 170.162Z" fill="#272343"/>
<path d="M45.08 219.08V225.92C45.08 227.04 44.48 228.08 43.51 228.65L37.57 232.08C36.6 232.64 35.4 232.64 34.42 232.08L28.48 228.65C28.0018 228.373 27.6049 227.974 27.3293 227.495C27.0538 227.016 26.9091 226.473 26.91 225.92V219.08C26.91 217.96 27.51 216.92 28.48 216.35L34.42 212.92C35.39 212.36 36.59 212.36 37.57 212.92L43.51 216.35C44.48 216.92 45.08 217.95 45.08 219.08Z" stroke="#272343" stroke-width="1.5" stroke-linecap="round" stroke-linejoin="round"/>
<path d="M36 221.5C36.618 221.5 37.2106 221.255 37.6476 220.818C38.0845 220.381 38.33 219.788 38.33 219.17C38.33 218.552 38.0845 217.959 37.6476 217.522C37.2106 217.085 36.618 216.84 36 216.84C35.382 216.84 34.7894 217.085 34.3524 217.522C33.9155 217.959 33.67 218.552 33.67 219.17C33.67 219.788 33.9155 220.381 34.3524 220.818C34.7894 221.255 35.382 221.5 36 221.5Z" stroke="#272343" stroke-width="1.5" stroke-linecap="round" stroke-linejoin="round"/>
<path d="M40 227.16C40 225.36 38.21 223.9 36 223.9C33.79 223.9 32 225.36 32 227.16" stroke="#272343" stroke-width="1.5" stroke-linecap="round" stroke-linejoin="round"/>
<path d="M71.524 216.4L76.042 228.82V229H73.738L72.748 226.084H67.6L66.61 229H64.378V228.82L68.878 216.4H71.524ZM68.23 224.23H72.118L70.21 218.614H70.138L68.23 224.23ZM81.1534 229.162C78.2914 229.162 76.7254 227.236 76.7254 224.356C76.7254 221.494 78.2554 219.55 81.0994 219.55C83.7094 219.55 85.0054 221.098 85.1314 223.096H83.0794C82.9894 222.052 82.2514 221.368 81.0994 221.368C79.5154 221.368 78.8134 222.556 78.8134 224.356C78.8134 226.192 79.5154 227.362 81.0994 227.362C82.2694 227.362 82.9894 226.696 83.0974 225.634H85.1494C84.9874 227.686 83.6914 229.162 81.1534 229.162ZM90.9796 229.162C88.1176 229.162 86.5516 227.236 86.5516 224.356C86.5516 221.494 88.0816 219.55 90.9256 219.55C93.5356 219.55 94.8316 221.098 94.9576 223.096H92.9056C92.8156 222.052 92.0776 221.368 90.9256 221.368C89.3416 221.368 88.6396 222.556 88.6396 224.356C88.6396 226.192 89.3416 227.362 90.9256 227.362C92.0956 227.362 92.8156 226.696 92.9236 225.634H94.9756C94.8136 227.686 93.5176 229.162 90.9796 229.162ZM100.77 229.162C97.8178 229.162 96.3778 227.092 96.3778 224.356C96.3778 221.638 97.8538 219.55 100.77 219.55C103.686 219.55 105.162 221.638 105.162 224.356C105.162 227.074 103.722 229.162 100.77 229.162ZM100.77 227.344C102.336 227.344 103.074 226.228 103.074 224.356C103.074 222.502 102.336 221.368 100.77 221.368C99.2038 221.368 98.4658 222.52 98.4658 224.356C98.4658 226.228 99.2218 227.344 100.77 227.344ZM110.425 229.144C108.355 229.144 107.077 227.866 107.077 225.76V219.712H109.129V225.256C109.129 226.552 109.723 227.308 111.019 227.308C112.315 227.308 113.143 226.39 113.143 224.842V219.712H115.195V229H113.377L113.215 227.776H113.143C112.639 228.586 111.757 229.144 110.425 229.144ZM117.627 229V219.712H119.445L119.607 220.918H119.679C120.183 220.126 121.064 219.55 122.397 219.55C124.467 219.55 125.745 220.846 125.745 222.934V229H123.693V223.438C123.693 222.142 123.099 221.404 121.803 221.404C120.507 221.404 119.679 222.322 119.679 223.87V229H117.627ZM131.719 229C129.739 229 128.965 227.902 128.965 226.3V221.458H127.435V219.712H129.055V217.246H131.017V219.712H133.267V221.458H131.017V225.94C131.017 226.822 131.395 227.2 132.223 227.2H133.303V229H131.719Z" fill="#272343"/>
<path d="M319 267H0V269H319V267Z" fill="#E3E2E7" mask="url(#path-1-inside-1_107_55)"/>
</svg>
